PathFileType	4	(X/Y/Z)	..\data\2014029\dynamic\2014029_C5_05.trc
DataRate	CameraRate	NumFrames	NumMarkers	Units	OrigDataRate	OrigDataStartFrame	OrigNumFrames
100.000000	100.000000	4	52	mm	100.000000	21	172
Frame#	Time	L_IAS			L_IPS			R_IPS			R_IAS			L_FTC			L_FLE			L_FME			L_FAX			L_TTC			L_FAL			L_TAM			L_FCC			L_FM1			L_FM2			L_FM5			R_FTC			R_FLE			R_FME			R_FAX			R_TTC			R_FAL			R_TAM			R_FCC			R_FM1			R_FM2			R_FM5			CV7			TV10			SXS			SJN			L_SIA			L_SRS			L_SAA			L_SAE			L_HLE			L_HME			L_UOA			L_RSP			L_UHE			L_HM2			L_HM5			R_SIA			R_SRS			R_SAA			R_SAE			R_HLE			R_HME			R_UOA			R_RSP			R_UHE			R_HM2			R_HM5			
		X1	Y1	Z1	X2	Y2	Z2	X3	Y3	Z3	X4	Y4	Z4	X5	Y5	Z5	X6	Y6	Z6	X7	Y7	Z7	X8	Y8	Z8	X9	Y9	Z9	X10	Y10	Z10	X11	Y11	Z11	X12	Y12	Z12	X13	Y13	Z13	X14	Y14	Z14	X15	Y15	Z15	X16	Y16	Z16	X17	Y17	Z17	X18	Y18	Z18	X19	Y19	Z19	X20	Y20	Z20	X21	Y21	Z21	X22	Y22	Z22	X23	Y23	Z23	X24	Y24	Z24	X25	Y25	Z25	X26	Y26	Z26	X27	Y27	Z27	X28	Y28	Z28	X29	Y29	Z29	X30	Y30	Z30	X31	Y31	Z31	X32	Y32	Z32	X33	Y33	Z33	X34	Y34	Z34	X35	Y35	Z35	X36	Y36	Z36	X37	Y37	Z37	X38	Y38	Z38	X39	Y39	Z39	X40	Y40	Z40	X41	Y41	Z41	X42	Y42	Z42	X43	Y43	Z43	X44	Y44	Z44	X45	Y45	Z45	X46	Y46	Z46	X47	Y47	Z47	X48	Y48	Z48	X49	Y49	Z49	X50	Y50	Z50	X51	Y51	Z51	X52	Y52	Z52	

22	0.21	-1010.412475585938	1041.644775390625	98.54278564453115	-1207.751953125	1040.853881835938	193.8549194335937	-1200.281494140625	1047.932861328125	292.7734985351561	-989.312194824219	1062.971923828125	346.9101867675781	-1098.455810546875	941.5161132812502	45.99033355712878	-1086.00732421875	503.398895263672	60.88418960571277	-1061.747314453125	464.3786621093751	181.1189880371093	-1132.59912109375	462.9829711914064	56.41724014282214	-1076.4814453125	405.2121582031251	105.3003921508788	-1424.786010742188	240.126449584961	107.0036468505858	-1380.765625	207.0118255615235	195.6556854248046	-1488.323974609375	241.9796447753907	168.5407714843749	-1400.439086914063	53.83374404907228	178.7085723876952	-1396.062622070313	71.2511444091797	134.383834838867	-1439.578735351563	99.05681610107425	83.60018157958969	-1083.1328125	954.5408935546877	423.0238647460938	-994.0442504882815	509.8803100585939	384.0220031738281	-1001.069946289063	490.3981018066407	254.5298309326171	-1004.122741699219	440.0630493164064	384.5795593261719	-932.964538574219	450.7810058593751	322.6459655761718	-957.4299926757815	76.79368591308595	311.4090270996093	-934.0731201171877	96.636589050293	213.8744964599609	-1004.198669433594	21.28524589538575	264.4928588867187	-789.4273681640627	27.07506752014161	219.5091094970703	-789.7176513671877	37.92523956298829	281.8551635742187	-819.0740356445315	13.24155044555664	336.4902038574218	-1109.685424804688	1583.71337890625	238.8003387451171	-1206.749755859375	1318.58349609375	234.482681274414	-955.472106933594	1284.269897460938	225.8043670654296	-986.026306152344	1478.148681640625	234.8594360351562	-1231.567138671875	1362.970336914063	132.2764739990233	-1183.550170898438	1515.44970703125	133.4630279541014	-1130.901245117188	1513.941284179688	21.39456558227526	-1074.3818359375	1515.3759765625	16.3216915130614	-1072.416259765625	1165.114379882813	-85.28588867187514	-1102.963623046875	1145.35986328125	4.960454940795764	-1112.056396484375	1132.248291015625	-41.93809127807631	-865.8649902343752	962.5344848632815	-43.20732498168957	-932.695007324219	937.302673339844	-96.31934356689467	-800.832946777344	906.6873168945315	-45.53895568847667	-885.660095214844	865.735046386719	-109.0779571533205	-1226.957641601563	1354.755249023438	323.5425720214843	-1179.25390625	1500.7998046875	334.0204772949218	-1135.432983398438	1498.343139648438	441.0063781738281	-1084.197021484375	1501.315795898438	456.228271484375	-1166.89990234375	1153.997314453125	506.6100158691406	-1176.426513671875	1143.100341796875	413.3064270019531	-1196.585327148438	1138.996337890625	470.4576721191406	-1062.827880859375	880.557556152344	490.1072692871094	-1147.259887695313	891.5281372070315	525.5646362304688	-1047.028198242188	787.766784667969	489.1796875	-1158.548828125	804.2813110351565	526.9655151367188	
23	0.22	-997.5170898437502	1043.75439453125	99.38157653808584	-1194.808471679688	1042.442260742188	195.2966918945312	-1187.06005859375	1050.00048828125	294.1906738281249	-975.9104614257815	1064.34326171875	347.7988891601562	-1084.302734375	943.2966308593752	47.07312011718737	-1056.845458984375	505.2568359375001	60.17935180664051	-1033.458740234375	467.0166625976564	181.0352630615234	-1103.00341796875	465.014129638672	55.81462097167957	-1047.45458984375	407.475067138672	105.4002990722655	-1396.400146484375	243.840805053711	106.0698394775389	-1352.622436523438	210.5470428466797	194.9637145996093	-1460.690185546875	244.8496856689454	167.399932861328	-1370.853271484375	57.36433792114259	175.318634033203	-1366.539794921875	75.40660095214845	131.4290771484374	-1409.747924804688	104.152328491211	80.89951324462875	-1070.571655273438	956.0488891601565	424.0665893554688	-988.755065917969	510.3911132812501	384.6108703613281	-996.195739746094	490.9923706054689	255.1309967041015	-999.7070922851565	440.6383361816407	385.0210266113281	-928.5012207031252	450.5826416015626	323.2167663574218	-957.5871582031252	76.95848083496095	311.4194946289062	-934.1444091796877	96.65739440917972	213.8441467285156	-1004.294311523438	21.22715377807618	264.5727539062499	-789.6215820312502	26.95686340332032	219.201431274414	-789.5498657226565	37.91789245605469	281.5968017578124	-819.184265136719	13.4471025466919	336.4510498046874	-1095.887451171875	1585.479614257813	239.5570678710937	-1192.989624023438	1320.539306640625	235.9167327880859	-942.1174926757815	1285.873657226563	225.3340301513671	-972.2849731445315	1479.892700195313	234.7136688232421	-1218.447998046875	1364.977416992188	133.7215118408202	-1170.365112304688	1517.433349609375	134.6916656494139	-1118.525390625	1515.92138671875	22.18671226501451	-1062.12548828125	1517.4833984375	16.56430435180651	-1064.18798828125	1165.9921875	-82.31747436523452	-1093.898193359375	1147.64697265625	8.498006820678579	-1103.824584960938	1134.393676757813	-38.17470550537124	-862.537048339844	958.0274658203127	-40.77430725097668	-930.492126464844	934.5932617187502	-93.67885589599622	-799.4061279296877	899.9990844726565	-42.79000854492198	-885.5942382812502	861.6276855468752	-106.3879852294923	-1212.585205078125	1356.848876953125	325.4589538574218	-1164.786865234375	1502.681396484375	335.4310913085936	-1119.850219726563	1500.185913085938	442.1694641113281	-1068.452880859375	1503.096801757813	456.7779541015625	-1148.809814453125	1155.355834960938	508.3758239746094	-1159.56201171875	1144.3427734375	415.2058410644531	-1178.746459960938	1140.112060546875	472.6678161621093	-1043.305297851563	882.597106933594	490.5022277832031	-1127.353271484375	893.0548095703127	527.1062622070312	-1027.3046875	789.7650146484377	489.0339050292969	-1138.204711914063	805.8533935546877	528.6708374023438	
24	0.23	-984.6826171875002	1045.90771484375	100.299346923828	-1181.939575195313	1044.046508789063	196.7196807861327	-1173.944458007813	1051.8515625	295.5869140624999	-962.7327270507815	1065.467407226563	348.8052368164062	-1070.27490234375	945.3147583007815	48.07053756713856	-1028.165405273438	507.7414855957032	59.675136566162	-1005.723571777344	470.3510742187501	181.1776123046874	-1073.795166015625	467.3858032226564	55.40557479858386	-1018.535095214844	410.3374328613282	105.6453170776366	-1367.191162109375	246.1800384521485	105.1660690307616	-1323.44189453125	213.0664825439454	194.309844970703	-1432.284545898438	245.6417541503907	166.247116088867	-1338.433227539063	60.0537796020508	171.8836669921874	-1334.419067382813	78.8790969848633	128.3688659667967	-1377.694702148438	107.9426193237305	78.15217590332016	-1058.287475585938	957.166442871094	425.0089416503906	-983.4692993164065	510.8084716796876	385.0344848632812	-991.198913574219	491.5145263671876	255.5780792236328	-995.302429199219	441.1376342773439	385.3016662597656	-924.009216308594	450.2939758300782	323.6505737304687	-957.721374511719	77.08245086669923	311.3761596679687	-934.1443481445315	96.58618164062503	213.7559814453124	-1004.42529296875	21.17942619323731	264.5903015136718	-789.7790527343752	26.76814460754395	218.9114379882812	-789.4250488281252	37.81319046020509	281.2829284667968	-819.3366699218752	13.53702068328858	336.3625793457031	-1082.187744140625	1587.155029296875	240.1408386230468	-1179.368041992188	1322.393920898438	237.3455352783202	-928.9251708984377	1287.351196289063	224.8253631591796	-958.6789550781252	1481.518310546875	234.4609985351562	-1205.479858398438	1366.822021484375	135.3110351562499	-1157.307861328125	1519.238159179688	135.8598327636718	-1106.379516601563	1517.651489257813	22.87819671630846	-1050.104125976563	1519.34814453125	16.67469406127917	-1056.060424804688	1166.7060546875	-79.42350769042983	-1084.9423828125	1149.759887695313	11.90108108520495	-1095.6376953125	1136.369873046875	-34.56002807617202	-859.5609130859377	953.4168090820315	-38.39701461792004	-928.5796508789065	931.8535766601565	-91.15680694580091	-798.4666748046877	893.2216796875002	-40.01771926879893	-885.9058837890627	857.521423339844	-103.7661895751955	-1198.384399414063	1358.874877929688	327.2620849609374	-1150.479248046875	1504.495483398438	336.7045898437499	-1104.454467773438	1501.974853515625	443.1846923828125	-1052.89990234375	1504.8408203125	457.185546875	-1130.803833007813	1156.692138671875	510.1718444824219	-1142.805053710938	1145.480590820313	417.1842041015625	-1160.937133789063	1141.134155273438	474.9526367187499	-1023.562622070313	884.7327270507815	490.8961181640625	-1107.177368164063	894.5659179687502	528.7218017578125	-1007.187866210938	791.913024902344	488.9812927246094	-1117.418090820313	807.3895263671877	530.5404663085938	
25	0.24	-971.8719482421877	1048.061767578125	101.3052978515624	-1169.120849609375	1045.664184570313	198.0511016845702	-1160.918212890625	1053.49365234375	296.8980407714843	-949.7730712890627	1066.380004882813	349.9320678710937	-1056.309936523438	947.5018310546877	48.96497344970692	-1000.091796875	510.7932739257814	59.37908935546864	-978.5258789062502	474.2371215820314	181.4869537353515	-1045.088623046875	470.0476379394532	55.17853927612293	-989.7956542968752	413.7283020019532	105.9623718261718	-1337.245483398438	247.0541687011719	104.2819213867186	-1293.29150390625	214.4519500732422	193.6562194824218	-1403.133056640625	244.3379364013672	165.0938262939452	-1303.489379882813	61.81106185913087	168.4998321533202	-1299.989990234375	81.52610778808595	125.3122024536132	-1343.681640625	110.3035507202149	75.44245147705062	-1046.281860351563	957.940612792969	425.8406677246094	-978.1084594726565	511.1489562988282	385.3134765625	-986.0167236328127	491.9851989746095	255.8903045654296	-990.825622558594	441.5764770507814	385.4497680664062	-919.4216308593752	449.929656982422	323.9558715820312	-957.792907714844	77.18098449707033	311.2879943847656	-934.049987792969	96.44151306152347	213.6165466308593	-1004.567138671875	21.17162322998047	264.5661621093749	-789.886657714844	26.49545097351075	218.642349243164	-789.3106689453127	37.61653900146485	280.9259643554687	-819.502624511719	13.51712226867676	336.2525329589843	-1068.576904296875	1588.732788085938	240.5720214843749	-1165.86962890625	1324.135131835938	238.751968383789	-915.8621826171877	1288.708740234375	224.3275146484374	-945.1909179687502	1483.027587890625	234.1384735107421	-1192.637573242188	1368.490112304688	137.0496673583983	-1144.35595703125	1520.858276367188	136.9818725585936	-1094.429565429688	1519.128784179688	23.49915695190417	-1038.2802734375	1520.958618164063	16.68301010131824	-1048.027709960938	1167.252563476563	-76.60401153564467	-1076.094360351563	1151.68017578125	15.15775012969958	-1087.495239257813	1138.172119140625	-31.10252380371108	-856.9183349609377	948.7368774414065	-36.09031295776379	-926.9272460937502	929.1087646484377	-88.75703430175794	-797.9857177734377	886.4092407226565	-37.25111389160167	-886.5578613281252	853.4493408203127	-101.2170867919923	-1184.338500976563	1360.815185546875	328.9577026367186	-1136.326782226563	1506.2314453125	337.8517456054687	-1089.261352539063	1503.701171875	444.0630493164062	-1037.552612304688	1506.54443359375	457.4722900390625	-1112.9033203125	1158.00439453125	511.9886169433594	-1126.150634765625	1146.516235351563	419.2237854003906	-1143.187377929688	1142.067016601563	477.2896118164062	-1003.629028320313	886.9661254882815	491.2842407226562	-1086.761108398438	896.068542480469	530.3934936523438	-986.6878662109378	794.2231445312502	489.0345153808594	-1096.21044921875	808.895446777344	532.55029296875	
